<?xml version="1.0" encoding="UTF-8"?>
<svg xmlns="http://www.w3.org/2000/svg" xmlns:xlink="http://www.w3.org/1999/xlink" width="375pt" height="374.999991pt" viewBox="0 0 375 374.999991" version="1.2">
<defs>
<clipPath id="clip1">
  <path d="M 3.339844 0 L 371.519531 0 L 371.519531 368 L 3.339844 368 Z M 3.339844 0 "/>
</clipPath>
<clipPath id="clip2">
  <path d="M 98 88 L 196 88 L 196 330 L 98 330 Z M 98 88 "/>
</clipPath>
<clipPath id="clip3">
  <path d="M 145.824219 65.789062 L 325.566406 197.355469 L 195.769531 374.679688 L 16.027344 243.109375 Z M 145.824219 65.789062 "/>
</clipPath>
<clipPath id="clip4">
  <path d="M 145.824219 65.789062 L 325.566406 197.355469 L 195.769531 374.679688 L 16.027344 243.109375 Z M 145.824219 65.789062 "/>
</clipPath>
<clipPath id="clip5">
  <path d="M 180 152 L 304 152 L 304 272 L 180 272 Z M 180 152 "/>
</clipPath>
<clipPath id="clip6">
  <path d="M 145.824219 65.789062 L 325.566406 197.355469 L 195.769531 374.679688 L 16.027344 243.109375 Z M 145.824219 65.789062 "/>
</clipPath>
<clipPath id="clip7">
  <path d="M 145.824219 65.789062 L 325.566406 197.355469 L 195.769531 374.679688 L 16.027344 243.109375 Z M 145.824219 65.789062 "/>
</clipPath>
<clipPath id="clip8">
  <path d="M 19.582031 176.914062 L 351.832031 176.914062 L 351.832031 220.414062 L 19.582031 220.414062 Z M 19.582031 176.914062 "/>
</clipPath>
</defs>
<g id="surface1">
<path style=" stroke:none;fill-rule:nonzero;fill:rgb(100%,100%,100%);fill-opacity:1;" d="M 188.296875 8.398438 C 185.402344 8.398438 182.507812 8.46875 179.617188 8.613281 C 176.722656 8.753906 173.835938 8.96875 170.957031 9.25 C 168.074219 9.535156 165.203125 9.890625 162.339844 10.3125 C 159.472656 10.738281 156.621094 11.234375 153.78125 11.796875 C 150.945312 12.363281 148.121094 12.996094 145.3125 13.699219 C 142.503906 14.402344 139.714844 15.175781 136.941406 16.015625 C 134.171875 16.855469 131.421875 17.765625 128.699219 18.742188 C 125.972656 19.714844 123.269531 20.757812 120.597656 21.863281 C 117.921875 22.972656 115.277344 24.144531 112.660156 25.382812 C 110.042969 26.621094 107.457031 27.921875 104.902344 29.289062 C 102.347656 30.652344 99.832031 32.078125 97.347656 33.566406 C 94.863281 35.054688 92.417969 36.605469 90.011719 38.214844 C 87.605469 39.820312 85.238281 41.488281 82.914062 43.210938 C 80.585938 44.9375 78.304688 46.71875 76.066406 48.554688 C 73.828125 50.390625 71.636719 52.28125 69.492188 54.226562 C 67.347656 56.171875 65.25 58.167969 63.203125 60.214844 C 61.15625 62.261719 59.160156 64.355469 57.21875 66.503906 C 55.273438 68.648438 53.382812 70.839844 51.546875 73.078125 C 49.707031 75.316406 47.929688 77.597656 46.203125 79.921875 C 44.480469 82.246094 42.8125 84.613281 41.203125 87.019531 C 39.59375 89.429688 38.046875 91.875 36.558594 94.355469 C 35.070312 96.839844 33.644531 99.359375 32.277344 101.910156 C 30.914062 104.464844 29.613281 107.050781 28.375 109.667969 C 27.136719 112.285156 25.964844 114.929688 24.855469 117.605469 C 23.746094 120.28125 22.707031 122.980469 21.730469 125.707031 C 20.753906 128.433594 19.847656 131.179688 19.007812 133.953125 C 18.167969 136.722656 17.394531 139.511719 16.691406 142.320312 C 15.988281 145.128906 15.355469 147.953125 14.789062 150.792969 C 14.222656 153.632812 13.730469 156.484375 13.304688 159.347656 C 12.878906 162.210938 12.527344 165.082031 12.242188 167.964844 C 11.957031 170.847656 11.746094 173.734375 11.601562 176.625 C 11.460938 179.515625 11.390625 182.410156 11.390625 185.304688 C 11.390625 188.199219 11.460938 191.09375 11.601562 193.984375 C 11.746094 196.875 11.957031 199.761719 12.242188 202.644531 C 12.527344 205.527344 12.878906 208.398438 13.304688 211.261719 C 13.730469 214.125 14.222656 216.976562 14.789062 219.816406 C 15.355469 222.65625 15.988281 225.480469 16.691406 228.289062 C 17.394531 231.097656 18.167969 233.886719 19.007812 236.65625 C 19.847656 239.429688 20.753906 242.175781 21.730469 244.902344 C 22.707031 247.628906 23.746094 250.328125 24.855469 253.003906 C 25.964844 255.679688 27.136719 258.324219 28.375 260.941406 C 29.613281 263.558594 30.914062 266.144531 32.277344 268.699219 C 33.644531 271.25 35.070312 273.769531 36.558594 276.253906 C 38.046875 278.734375 39.59375 281.179688 41.203125 283.589844 C 42.8125 285.996094 44.480469 288.363281 46.203125 290.6875 C 47.929688 293.011719 49.707031 295.292969 51.546875 297.53125 C 53.382812 299.769531 55.273438 301.960938 57.21875 304.109375 C 59.160156 306.253906 61.15625 308.347656 63.203125 310.394531 C 65.25 312.441406 67.347656 314.4375 69.492188 316.382812 C 71.636719 318.328125 73.828125 320.21875 76.066406 322.054688 C 78.304688 323.890625 80.585938 325.671875 82.914062 327.398438 C 85.238281 329.121094 87.605469 330.789062 90.011719 332.398438 C 92.417969 334.003906 94.863281 335.554688 97.347656 337.042969 C 99.832031 338.53125 102.347656 339.957031 104.902344 341.320312 C 107.457031 342.6875 110.042969 343.988281 112.660156 345.226562 C 115.277344 346.464844 117.921875 347.636719 120.597656 348.746094 C 123.269531 349.851562 125.972656 350.894531 128.699219 351.871094 C 131.421875 352.84375 134.171875 353.753906 136.941406 354.59375 C 139.714844 355.433594 142.503906 356.207031 145.3125 356.910156 C 148.121094 357.613281 150.945312 358.246094 153.78125 358.8125 C 156.621094 359.375 159.472656 359.871094 162.339844 360.296875 C 165.203125 360.722656 168.074219 361.074219 170.957031 361.359375 C 173.835938 361.644531 176.722656 361.855469 179.617188 361.996094 C 182.507812 362.140625 185.402344 362.210938 188.296875 362.210938 C 191.191406 362.210938 194.085938 362.140625 196.976562 361.996094 C 199.867188 361.855469 202.753906 361.644531 205.636719 361.359375 C 208.515625 361.074219 211.390625 360.722656 214.253906 360.296875 C 217.117188 359.871094 219.96875 359.375 222.808594 358.8125 C 225.648438 358.246094 228.472656 357.613281 231.28125 356.910156 C 234.089844 356.207031 236.878906 355.433594 239.648438 354.59375 C 242.417969 353.753906 245.167969 352.84375 247.894531 351.871094 C 250.621094 350.894531 253.320312 349.851562 255.996094 348.746094 C 258.667969 347.636719 261.316406 346.464844 263.933594 345.226562 C 266.550781 343.988281 269.136719 342.6875 271.6875 341.320312 C 274.242188 339.957031 276.761719 338.53125 279.242188 337.042969 C 281.726562 335.554688 284.171875 334.003906 286.578125 332.398438 C 288.988281 330.789062 291.351562 329.121094 293.679688 327.398438 C 296.003906 325.671875 298.285156 323.890625 300.523438 322.054688 C 302.761719 320.21875 304.953125 318.328125 307.097656 316.382812 C 309.242188 314.4375 311.339844 312.441406 313.386719 310.394531 C 315.433594 308.347656 317.429688 306.253906 319.375 304.109375 C 321.320312 301.960938 323.207031 299.769531 325.046875 297.53125 C 326.882812 295.292969 328.664062 293.011719 330.386719 290.6875 C 332.113281 288.363281 333.777344 285.996094 335.386719 283.589844 C 336.996094 281.179688 338.542969 278.734375 340.03125 276.253906 C 341.519531 273.769531 342.949219 271.25 344.3125 268.699219 C 345.675781 266.144531 346.980469 263.558594 348.214844 260.941406 C 349.453125 258.324219 350.628906 255.679688 351.734375 253.003906 C 352.84375 250.328125 353.886719 247.628906 354.859375 244.902344 C 355.835938 242.175781 356.742188 239.429688 357.582031 236.65625 C 358.425781 233.886719 359.195312 231.097656 359.898438 228.289062 C 360.601562 225.480469 361.238281 222.65625 361.800781 219.816406 C 362.367188 216.976562 362.863281 214.125 363.285156 211.261719 C 363.710938 208.398438 364.066406 205.527344 364.347656 202.644531 C 364.632812 199.761719 364.847656 196.875 364.988281 193.984375 C 365.128906 191.09375 365.203125 188.199219 365.203125 185.304688 C 365.203125 182.410156 365.128906 179.515625 364.988281 176.625 C 364.847656 173.734375 364.632812 170.847656 364.347656 167.964844 C 364.066406 165.082031 363.710938 162.210938 363.285156 159.347656 C 362.863281 156.484375 362.367188 153.632812 361.800781 150.792969 C 361.238281 147.953125 360.601562 145.128906 359.898438 142.320312 C 359.195312 139.511719 358.425781 136.722656 357.582031 133.953125 C 356.742188 131.179688 355.835938 128.433594 354.859375 125.707031 C 353.886719 122.980469 352.84375 120.28125 351.734375 117.605469 C 350.628906 114.929688 349.453125 112.285156 348.214844 109.667969 C 346.980469 107.050781 345.675781 104.464844 344.3125 101.910156 C 342.949219 99.359375 341.519531 96.839844 340.03125 94.355469 C 338.542969 91.875 336.996094 89.429688 335.386719 87.019531 C 333.777344 84.613281 332.113281 82.246094 330.386719 79.921875 C 328.664062 77.597656 326.882812 75.316406 325.046875 73.078125 C 323.207031 70.839844 321.320312 68.648438 319.375 66.503906 C 317.429688 64.355469 315.433594 62.261719 313.386719 60.214844 C 311.339844 58.167969 309.242188 56.171875 307.097656 54.226562 C 304.953125 52.28125 302.761719 50.390625 300.523438 48.554688 C 298.285156 46.71875 296.003906 44.9375 293.679688 43.210938 C 291.351562 41.488281 288.988281 39.820312 286.578125 38.214844 C 284.171875 36.605469 281.726562 35.054688 279.242188 33.566406 C 276.761719 32.078125 274.242188 30.652344 271.6875 29.289062 C 269.136719 27.921875 266.550781 26.621094 263.933594 25.382812 C 261.316406 24.144531 258.667969 22.972656 255.996094 21.863281 C 253.320312 20.757812 250.621094 19.714844 247.894531 18.742188 C 245.167969 17.765625 242.417969 16.855469 239.648438 16.015625 C 236.878906 15.175781 234.089844 14.402344 231.28125 13.699219 C 228.472656 12.996094 225.648438 12.363281 222.808594 11.796875 C 219.96875 11.234375 217.117188 10.738281 214.253906 10.3125 C 211.390625 9.890625 208.515625 9.535156 205.636719 9.25 C 202.753906 8.96875 199.867188 8.753906 196.976562 8.613281 C 194.085938 8.46875 191.191406 8.398438 188.296875 8.398438 Z M 188.296875 8.398438 "/>
<path style=" stroke:none;fill-rule:evenodd;fill:rgb(0%,0%,0%);fill-opacity:1;" d="M 26.042969 159.859375 C 19.675781 161.875 13.652344 165.484375 9.75 171.011719 C 8.292969 173.082031 11.691406 175.054688 13.140625 173 C 16.402344 168.375 21.734375 165.339844 27.039062 163.660156 C 29.449219 162.902344 28.464844 159.09375 26.042969 159.859375 Z M 26.042969 159.859375 "/>
<path style=" stroke:none;fill-rule:evenodd;fill:rgb(0%,0%,0%);fill-opacity:1;" d="M 56.734375 152.785156 C 50.398438 152.921875 42.515625 154.289062 36.898438 157.347656 C 34.667969 158.566406 36.597656 161.988281 38.824219 160.777344 C 43.816406 158.054688 51.109375 156.832031 56.726562 156.714844 C 59.257812 156.664062 59.273438 152.730469 56.734375 152.785156 Z M 56.734375 152.785156 "/>
<path style=" stroke:none;fill-rule:evenodd;fill:rgb(0%,0%,0%);fill-opacity:1;" d="M 85.84375 146.320312 C 79.441406 146.976562 73.214844 148.480469 67.019531 150.15625 C 64.566406 150.820312 65.558594 154.621094 68.015625 153.960938 C 73.878906 152.371094 79.78125 150.871094 85.84375 150.25 C 88.332031 149.996094 88.371094 146.058594 85.84375 146.324219 Z M 85.84375 146.320312 "/>
<path style=" stroke:none;fill-rule:evenodd;fill:rgb(0%,0%,0%);fill-opacity:1;" d="M 117.109375 142.546875 C 110.855469 143.242188 104.546875 144.089844 98.246094 144.164062 C 95.714844 144.195312 95.699219 148.121094 98.238281 148.09375 C 104.535156 148.019531 110.855469 147.167969 117.109375 146.476562 C 119.597656 146.195312 119.632812 142.265625 117.109375 142.542969 Z M 117.109375 142.546875 "/>
<path style=" stroke:none;fill-rule:evenodd;fill:rgb(0%,0%,0%);fill-opacity:1;" d="M 147.296875 142.546875 C 141.546875 142.019531 135.800781 142.0625 130.050781 142.546875 C 127.546875 142.753906 127.515625 146.6875 130.050781 146.476562 C 135.800781 145.992188 141.546875 145.949219 147.296875 146.476562 C 149.816406 146.707031 149.8125 142.777344 147.296875 142.546875 Z M 147.296875 142.546875 "/>
<path style=" stroke:none;fill-rule:evenodd;fill:rgb(0%,0%,0%);fill-opacity:1;" d="M 177.492188 140.390625 C 171.75 140.917969 165.996094 140.929688 160.242188 140.929688 C 157.707031 140.929688 157.699219 144.863281 160.238281 144.863281 C 165.996094 144.863281 171.75 144.851562 177.484375 144.320312 C 179.984375 144.089844 180.015625 140.15625 177.492188 140.390625 Z M 177.492188 140.390625 "/>
<path style=" stroke:none;fill-rule:evenodd;fill:rgb(0%,0%,0%);fill-opacity:1;" d="M 206.179688 129.523438 C 203.691406 132.234375 201.878906 135.800781 200.203125 139.3125 L 190.96875 139.3125 C 188.4375 139.3125 188.421875 143.242188 190.964844 143.242188 L 198.3125 143.242188 C 198.183594 143.5 198.054688 143.78125 197.929688 144.035156 C 196.804688 146.289062 200.183594 148.289062 201.320312 146.023438 C 201.78125 145.089844 202.28125 144.167969 202.761719 143.242188 L 204.980469 143.242188 C 207.507812 143.242188 207.523438 139.3125 204.980469 139.3125 L 204.773438 139.3125 C 205.976562 136.96875 207.167969 134.25 208.917969 132.34375 C 210.636719 130.484375 207.90625 127.664062 206.1875 129.527344 Z M 206.179688 129.523438 "/>
<path style=" stroke:none;fill-rule:evenodd;fill:rgb(0%,0%,0%);fill-opacity:1;" d="M 230.824219 141.535156 C 226.132812 139.835938 221.296875 138.871094 216.300781 139.3125 C 213.800781 139.535156 213.769531 143.464844 216.296875 143.242188 C 220.992188 142.828125 225.414062 143.738281 229.8125 145.332031 C 232.1875 146.195312 233.199219 142.394531 230.824219 141.535156 Z M 230.824219 141.535156 "/>
<path style=" stroke:none;fill-rule:evenodd;fill:rgb(0%,0%,0%);fill-opacity:1;" d="M 258.859375 143.691406 C 253.402344 142.367188 247.792969 141.535156 242.183594 141.46875 C 239.648438 141.4375 239.640625 145.367188 242.179688 145.398438 C 247.464844 145.464844 252.703125 146.246094 257.847656 147.488281 C 260.304688 148.085938 261.328125 144.292969 258.859375 143.695312 Z M 258.859375 143.691406 "/>
<path style=" stroke:none;fill-rule:evenodd;fill:rgb(0%,0%,0%);fill-opacity:1;" d="M 286.882812 147.464844 C 281.296875 145.679688 275.480469 144.777344 269.660156 144.164062 C 267.144531 143.898438 267.15625 147.832031 269.660156 148.09375 C 275.144531 148.671875 280.605469 149.582031 285.871094 151.261719 C 288.289062 152.03125 289.285156 148.234375 286.867188 147.464844 Z M 286.882812 147.464844 "/>
<path style=" stroke:none;fill-rule:evenodd;fill:rgb(0%,0%,0%);fill-opacity:1;" d="M 308.40625 151.441406 C 305.003906 149.828125 299.9375 148.097656 296.136719 149.082031 C 293.675781 149.710938 294.667969 153.515625 297.125 152.882812 C 299.832031 152.183594 304 153.6875 306.417969 154.832031 C 308.679688 155.910156 310.675781 152.527344 308.390625 151.441406 Z M 308.40625 151.441406 "/>
<path style=" stroke:none;fill-rule:evenodd;fill:rgb(0%,0%,0%);fill-opacity:1;" d="M 334.339844 156.09375 C 329.960938 154.65625 325.4375 153.476562 320.863281 152.859375 C 318.390625 152.519531 317.339844 156.3125 319.851562 156.65625 C 324.425781 157.277344 328.941406 158.457031 333.324219 159.890625 C 335.742188 160.675781 336.742188 156.878906 334.351562 156.09375 Z M 334.339844 156.09375 "/>
<path style=" stroke:none;fill-rule:evenodd;fill:rgb(0%,0%,0%);fill-opacity:1;" d="M 358.414062 166.324219 C 355.039062 163.152344 350.191406 161.078125 345.648438 160.40625 C 343.175781 160.039062 342.125 163.832031 344.636719 164.203125 C 348.480469 164.773438 352.726562 166.359375 355.589844 169.0625 C 357.457031 170.800781 360.269531 168.0625 358.429688 166.328125 Z M 358.414062 166.324219 "/>
<g clip-path="url(#clip1)" clip-rule="nonzero">
<path style=" stroke:none;fill-rule:evenodd;fill:rgb(0%,0%,0%);fill-opacity:1;" d="M 371.523438 177.820312 L 370.386719 177.820312 C 367.050781 79.597656 286.167969 0.707031 187.148438 0.707031 C 88.140625 0.707031 7.25 79.597656 3.929688 177.820312 L 3.332031 177.820312 C 3.332031 178.851562 3.550781 179.855469 3.851562 180.847656 C 3.832031 181.929688 3.769531 183 3.769531 184.085938 C 3.769531 285.207031 86.035156 367.472656 187.148438 367.472656 C 288.269531 367.472656 370.535156 285.207031 370.535156 184.085938 C 370.535156 183.480469 370.5 182.886719 370.488281 182.28125 C 371.144531 180.839844 371.511719 179.351562 371.511719 177.824219 Z M 187.15625 8.5625 C 278.847656 8.5625 354.292969 79.25 361.992188 168.980469 C 360.277344 169.304688 359.804688 172.195312 361.894531 172.828125 C 362.042969 172.871094 362.15625 172.96875 362.300781 173.027344 C 362.457031 175.546875 362.542969 178.082031 362.597656 180.625 C 353.785156 192.984375 288.785156 208.257812 187.433594 208.257812 C 83.683594 208.257812 18.035156 192.257812 11.746094 179.761719 C 14.089844 84.972656 91.863281 8.5625 187.191406 8.5625 Z M 187.15625 359.617188 C 92.417969 359.617188 15.019531 284.152344 11.789062 190.1875 C 36.585938 207.253906 112.367188 216.117188 187.433594 216.117188 C 261.914062 216.117188 337.132812 207.394531 362.519531 190.582031 C 359.101562 284.351562 281.765625 359.613281 187.164062 359.613281 Z M 187.15625 359.617188 "/>
</g>
<path style=" stroke:none;fill-rule:evenodd;fill:rgb(0%,0%,0%);fill-opacity:1;" d="M 190.886719 151.964844 C 186.667969 158.355469 182.785156 164.960938 178.546875 171.347656 C 177.148438 173.460938 180.546875 175.433594 181.9375 173.332031 C 186.171875 166.949219 190.058594 160.34375 194.273438 153.953125 C 195.667969 151.832031 192.273438 149.855469 190.882812 151.964844 Z M 190.886719 151.964844 "/>
<path style=" stroke:none;fill-rule:evenodd;fill:rgb(0%,0%,0%);fill-opacity:1;" d="M 220.835938 107.035156 C 219.695312 109.058594 218.542969 111.074219 217.382812 113.082031 C 216.335938 114.902344 214.648438 118.523438 213.4375 119.695312 C 212.8125 120.09375 212.414062 120.804688 212.695312 121.738281 C 212.703125 121.75 212.703125 121.765625 212.710938 121.777344 C 212.941406 122.542969 213.726562 123.355469 214.605469 123.246094 C 217.101562 122.925781 218.648438 118.726562 219.742188 116.84375 C 221.261719 114.25 222.75 111.636719 224.222656 109.023438 C 225.464844 106.816406 222.082031 104.824219 220.835938 107.035156 Z M 220.835938 107.035156 "/>
<path style=" stroke:none;fill-rule:evenodd;fill:rgb(0%,0%,0%);fill-opacity:1;" d="M 238.066406 82.316406 C 237.355469 82.085938 236.671875 82.382812 236.136719 82.835938 C 235.785156 83.128906 235.625 83.460938 235.550781 83.800781 C 235.523438 83.867188 235.492188 83.9375 235.460938 83.988281 C 235.117188 84.585938 234.75 85.171875 234.386719 85.761719 C 233.417969 87.324219 232.433594 88.871094 231.445312 90.421875 C 229.972656 92.734375 228.496094 95.042969 227.003906 97.34375 C 225.617188 99.476562 229.019531 101.453125 230.390625 99.332031 C 231.882812 97.027344 233.363281 94.71875 234.835938 92.40625 C 236.265625 90.164062 238.824219 87.363281 239.457031 84.722656 C 239.71875 83.644531 239.105469 82.652344 238.066406 82.320312 Z M 238.066406 82.316406 "/>
<path style=" stroke:none;fill-rule:evenodd;fill:rgb(0%,0%,0%);fill-opacity:1;" d="M 253.226562 58.191406 C 252.335938 60.507812 250.414062 62.660156 248.957031 64.628906 C 246.808594 67.523438 244.546875 70.332031 242.304688 73.148438 C 240.738281 75.101562 243.464844 77.933594 245.046875 75.964844 C 247.335938 73.097656 249.613281 70.226562 251.824219 67.304688 C 253.738281 64.785156 255.882812 62.175781 257.027344 59.203125 C 257.933594 56.84375 254.128906 55.847656 253.226562 58.191406 Z M 253.226562 58.191406 "/>
<g clip-path="url(#clip2)" clip-rule="nonzero">
<g clip-path="url(#clip3)" clip-rule="nonzero">
<g clip-path="url(#clip4)" clip-rule="nonzero">
<path style=" stroke:none;fill-rule:nonzero;fill:rgb(36.859131%,9.01947%,92.158508%);fill-opacity:1;" d="M 188.007812 317.75 L 176.332031 324.410156 C 156.871094 335.515625 132.015625 328.011719 122.023438 307.941406 C 81.875 227.324219 100.496094 153.296875 117.839844 112.21875 C 126.027344 92.832031 148.171875 83.488281 167.828125 91.066406 L 175.949219 94.195312 C 182.433594 96.695312 186.484375 103.183594 185.875 110.105469 L 183.523438 136.890625 C 182.847656 144.554688 176.671875 150.574219 168.988281 151.054688 L 158.863281 151.6875 C 153.640625 152.011719 148.96875 155.039062 146.53125 159.671875 C 134.195312 183.089844 135.140625 230.0625 148.199219 255.09375 C 151.035156 260.527344 156.863281 263.714844 162.960938 263.132812 L 169.707031 262.488281 C 176.867188 261.800781 183.574219 266.109375 185.925781 272.910156 L 195 299.144531 C 197.449219 306.222656 194.511719 314.039062 188.007812 317.75 "/>
</g>
</g>
</g>
<g clip-path="url(#clip5)" clip-rule="nonzero">
<g clip-path="url(#clip6)" clip-rule="nonzero">
<g clip-path="url(#clip7)" clip-rule="nonzero">
<path style=" stroke:none;fill-rule:nonzero;fill:rgb(21.958923%,71.369934%,100%);fill-opacity:1;" d="M 252.738281 236.097656 C 239.351562 241.996094 223.703125 235.921875 217.789062 222.53125 C 211.878906 209.136719 217.941406 193.5 231.328125 187.605469 C 244.722656 181.707031 260.367188 187.78125 266.28125 201.171875 C 272.191406 214.5625 266.128906 230.199219 252.738281 236.097656 Z M 300.617188 204.996094 L 292.121094 202.847656 C 289.1875 202.152344 286.945312 200.035156 285.726562 197.277344 L 282.417969 189.785156 C 281.199219 187.023438 281.148438 183.941406 282.613281 181.308594 L 286.851562 173.550781 C 287.886719 171.6875 287.324219 169.367188 285.601562 168.109375 L 270.664062 157.203125 C 268.945312 155.945312 266.542969 156.164062 265.082031 157.714844 L 259.035156 164.121094 C 256.96875 166.3125 253.988281 167.410156 250.988281 167.082031 L 242.6875 166.175781 C 239.6875 165.851562 237.015625 164.136719 235.464844 161.550781 L 231.050781 154.234375 C 229.957031 152.410156 227.746094 151.855469 225.796875 152.710938 L 208.894531 160.160156 C 206.945312 161.019531 205.863281 163.019531 206.476562 165.0625 L 209.039062 173.644531 C 209.90625 176.535156 209.351562 179.617188 207.570312 182.050781 L 202.957031 188.316406 C 201.179688 190.746094 198.355469 192.191406 195.339844 192.238281 L 186.503906 192.371094 C 184.375 192.40625 182.601562 194.015625 182.371094 196.136719 L 180.382812 214.496094 C 180.15625 216.613281 181.539062 218.570312 183.613281 219.066406 L 192.296875 221.214844 C 195.230469 221.914062 197.535156 224.003906 198.753906 226.761719 L 201.84375 233.761719 C 203.0625 236.523438 203.054688 239.632812 201.589844 242.265625 L 197.257812 250.152344 C 196.222656 252.015625 196.769531 254.339844 198.488281 255.601562 L 213.421875 266.507812 C 215.140625 267.769531 217.535156 267.546875 219 266 L 225.226562 259.398438 C 227.296875 257.207031 230.273438 256.109375 233.273438 256.4375 L 240.757812 257.253906 C 243.753906 257.582031 246.429688 259.292969 247.976562 261.878906 L 252.648438 269.617188 C 253.742188 271.445312 255.949219 271.992188 257.898438 271.132812 L 274.796875 263.6875 C 276.75 262.828125 277.832031 260.835938 277.222656 258.792969 L 274.699219 250.339844 C 273.832031 247.449219 274.390625 244.371094 276.167969 241.9375 L 280.722656 235.753906 C 282.503906 233.320312 285.324219 231.875 288.34375 231.828125 L 297.722656 231.6875 C 299.855469 231.65625 301.628906 230.042969 301.859375 227.925781 L 303.847656 209.566406 C 304.074219 207.449219 302.691406 205.492188 300.617188 204.996094 "/>
</g>
</g>
</g>
<g clip-path="url(#clip8)" clip-rule="nonzero">
<path style=" stroke:none;fill-rule:evenodd;fill:rgb(0%,0%,0%);fill-opacity:1;" d="M 371.523438 177.820312 L 370.386719 177.820312 C 367.050781 79.597656 286.167969 0.707031 187.148438 0.707031 C 88.140625 0.707031 7.25 79.597656 3.929688 177.820312 L 3.332031 177.820312 C 3.332031 178.851562 3.550781 179.855469 3.851562 180.847656 C 3.832031 181.929688 3.769531 183 3.769531 184.085938 C 3.769531 285.207031 86.035156 367.472656 187.148438 367.472656 C 288.269531 367.472656 370.535156 285.207031 370.535156 184.085938 C 370.535156 183.480469 370.5 182.886719 370.488281 182.28125 C 371.144531 180.839844 371.511719 179.351562 371.511719 177.824219 Z M 187.15625 8.5625 C 278.847656 8.5625 354.292969 79.25 361.992188 168.980469 C 360.277344 169.304688 359.804688 172.195312 361.894531 172.828125 C 362.042969 172.871094 362.15625 172.96875 362.300781 173.027344 C 362.457031 175.546875 362.542969 178.082031 362.597656 180.625 C 353.785156 192.984375 288.785156 208.257812 187.433594 208.257812 C 83.683594 208.257812 18.035156 192.257812 11.746094 179.761719 C 14.089844 84.972656 91.863281 8.5625 187.191406 8.5625 Z M 187.15625 359.617188 C 92.417969 359.617188 15.019531 284.152344 11.789062 190.1875 C 36.585938 207.253906 112.367188 216.117188 187.433594 216.117188 C 261.914062 216.117188 337.132812 207.394531 362.519531 190.582031 C 359.101562 284.351562 281.765625 359.613281 187.164062 359.613281 Z M 187.15625 359.617188 "/>
</g>
</g>
</svg>
